<?xml version="1.0" encoding="UTF-8" standalone="no"?>
<!DOCTYPE svg PUBLIC "-//W3C//DTD SVG 1.1//EN" "http://www.w3.org/Graphics/SVG/1.1/DTD/svg11.dtd">
<!-- Generated by Microsoft Visio, SVG Export lyric-mood-classification-flow.svg Page-1 -->
<svg xmlns="http://www.w3.org/2000/svg" xmlns:xlink="http://www.w3.org/1999/xlink" xmlns:ev="http://www.w3.org/2001/xml-events"
		xmlns:v="http://schemas.microsoft.com/visio/2003/SVGExtensions/" width="21.5in" height="8.5in" viewBox="0 0 1548 612"
		xml:space="preserve" color-interpolation-filters="sRGB" class="st25">
	<v:documentProperties v:langID="1033" v:viewMarkup="false">
		<v:userDefs>
			<v:ud v:nameU="msvSubprocessMaster" v:prompt="" v:val="VT4(Rectangle)"/>
			<v:ud v:nameU="msvNoAutoConnect" v:val="VT0(1):26"/>
		</v:userDefs>
	</v:documentProperties>

	<style type="text/css">
	<![CDATA[
		.st1 {fill:#ffffff;stroke:#e9eff7;stroke-width:0.75}
		.st2 {visibility:visible}
		.st3 {fill:#5b9bd5;fill-opacity:0.22;filter:url(#filter_2);stroke:#5b9bd5;stroke-opacity:0.22}
		.st4 {fill:#5b9bd5;stroke:#c7c8c8;stroke-width:0.25}
		.st5 {fill:#feffff;font-family:Calibri;font-size:0.833336em}
		.st6 {font-size:1em}
		.st7 {fill:#ed7d31;fill-opacity:0.22;filter:url(#filter_2);stroke:#ed7d31;stroke-opacity:0.22}
		.st8 {fill:#ed7d31;stroke:#c7c8c8;stroke-width:0.25}
		.st9 {fill:#feffff;font-family:Calibri;font-size:0.833336em;font-weight:bold}
		.st10 {font-size:1em;font-weight:normal}
		.st11 {fill:url(#grad0-43)}
		.st12 {stroke:#4f87bb;stroke-width:0.75}
		.st13 {fill:#4f87bb;font-family:Calibri;font-size:0.833336em}
		.st14 {marker-end:url(#mrkr4-57);stroke:#5b9bd5;stroke-linecap:round;stroke-linejoin:round;stroke-width:1}
		.st15 {fill:#5b9bd5;fill-opacity:1;stroke:#5b9bd5;stroke-opacity:1;stroke-width:0.28409090909091}
		.st16 {fill:#ffffff;stroke:none;stroke-linecap:butt;stroke-width:7.2}
		.st17 {fill:#4f87bb;font-family:Calibri;font-size:0.666664em}
		.st18 {fill:url(#grad0-108);stroke:#4f87bb;stroke-width:0.75}
		.st19 {marker-end:url(#mrkr4-142);stroke:#ed7d31;stroke-linecap:round;stroke-linejoin:round;stroke-width:1}
		.st20 {fill:#ed7d31;fill-opacity:1;stroke:#ed7d31;stroke-opacity:1;stroke-width:0.28409090909091}
		.st21 {fill:#d06d29;font-family:Calibri;font-size:0.666664em}
		.st22 {marker-start:url(#mrkr4-170);stroke:#ed7d31;stroke-linecap:round;stroke-linejoin:round;stroke-width:1}
		.st23 {fill:#ffffff;stroke:#ed7d31;stroke-width:0.75}
		.st24 {fill:#ed7d31;font-family:Calibri;font-size:0.833336em}
		.st25 {fill:none;fill-rule:evenodd;font-size:12px;overflow:visible;stroke-linecap:square;stroke-miterlimit:3}
	]]>
	</style>

	<defs id="Patterns_And_Gradients">
		<linearGradient id="grad0-43" x1="0" y1="0" x2="1" y2="0" gradientTransform="rotate(60 0.5 0.5)">
			<stop offset="0" stop-color="#e9eff7" stop-opacity="1"/>
			<stop offset="0.24" stop-color="#f4f7fb" stop-opacity="1"/>
			<stop offset="0.54" stop-color="#feffff" stop-opacity="1"/>
		</linearGradient>
		<linearGradient id="grad0-108" x1="0" y1="0" x2="1" y2="0" gradientTransform="rotate(60 0.5 0.5)">
			<stop offset="0" stop-color="#c2d1e9" stop-opacity="1"/>
			<stop offset="0.24" stop-color="#ced8ec" stop-opacity="1"/>
			<stop offset="0.54" stop-color="#3382c8" stop-opacity="1"/>
		</linearGradient>
	</defs>
	<defs id="Markers">
		<g id="lend4">
			<path d="M 2 1 L 0 0 L 2 -1 L 2 1 " style="stroke:none"/>
		</g>
		<marker id="mrkr4-57" class="st15" v:arrowType="4" v:arrowSize="2" v:setback="7.04" refX="-7.04" orient="auto"
				markerUnits="strokeWidth" overflow="visible">
			<use xlink:href="#lend4" transform="scale(-3.52,-3.52) "/>
		</marker>
		<marker id="mrkr4-142" class="st20" v:arrowType="4" v:arrowSize="2" v:setback="7.04" refX="-7.04" orient="auto"
				markerUnits="strokeWidth" overflow="visible">
			<use xlink:href="#lend4" transform="scale(-3.52,-3.52) "/>
		</marker>
		<marker id="mrkr4-170" class="st20" v:arrowType="4" v:arrowSize="2" v:setback="6.68" refX="6.68" orient="auto"
				markerUnits="strokeWidth" overflow="visible">
			<use xlink:href="#lend4" transform="scale(3.52) "/>
		</marker>
	</defs>
	<defs id="Filters">
		<filter id="filter_2">
			<feGaussianBlur stdDeviation="2"/>
		</filter>
	</defs>
	<g v:mID="0" v:index="1" v:groupContext="foregroundPage">
		<v:userDefs>
			<v:ud v:nameU="msvThemeOrder" v:val="VT0(0):26"/>
		</v:userDefs>
		<title>Page-1</title>
		<v:pageProperties v:drawingScale="1" v:pageScale="1" v:drawingUnits="0" v:shadowOffsetX="9" v:shadowOffsetY="-9"/>
		<v:layer v:name="Connector" v:index="0"/>
		<g id="shape42-1" v:mID="42" v:groupContext="shape" transform="translate(54,-36)">
			<title>Rectangle.42</title>
			<v:userDefs>
				<v:ud v:nameU="visVersion" v:val="VT0(15):26"/>
			</v:userDefs>
			<rect x="0" y="117" width="828" height="495" class="st1"/>
		</g>
		<g id="shape2-3" v:mID="2" v:groupContext="shape" transform="translate(265.5,-378)">
			<title>Rectangle.2</title>
			<desc>scrape_lyrics.py</desc>
			<v:userDefs>
				<v:ud v:nameU="visVersion" v:val="VT0(15):26"/>
			</v:userDefs>
			<v:textBlock v:margins="rect(4,4,4,4)"/>
			<v:textRect cx="54" cy="576" width="108" height="72"/>
			<g id="shadow2-4" v:groupContext="shadow" v:shadowOffsetX="0.345598" v:shadowOffsetY="-1.97279" v:shadowType="1"
					transform="matrix(1,0,0,1,0.345598,1.97279)" class="st2">
				<rect x="0" y="540" width="108" height="72" class="st3"/>
			</g>
			<rect x="0" y="540" width="108" height="72" class="st4"/>
			<text x="21.66" y="579" class="st5" v:langID="1033"><v:paragraph v:horizAlign="1"/><v:tabList/>scrape_lyrics.py</text>		</g>
		<g id="shape3-9" v:mID="3" v:groupContext="shape" transform="translate(576,-378)">
			<title>Rectangle.3</title>
			<desc>Index_lyrics.py &#38; label_lyrics.py</desc>
			<v:userDefs>
				<v:ud v:nameU="visVersion" v:val="VT0(15):26"/>
			</v:userDefs>
			<v:textBlock v:margins="rect(4,4,4,4)"/>
			<v:textRect cx="54" cy="576" width="108" height="72"/>
			<g id="shadow3-10" v:groupContext="shadow" v:shadowOffsetX="0.345598" v:shadowOffsetY="-1.97279" v:shadowType="1"
					transform="matrix(1,0,0,1,0.345598,1.97279)" class="st2">
				<rect x="0" y="540" width="108" height="72" class="st3"/>
			</g>
			<rect x="0" y="540" width="108" height="72" class="st4"/>
			<text x="23.82" y="573" class="st5" v:langID="1033"><v:paragraph v:horizAlign="1"/><v:tabList/>Index_lyrics.py<v:newlineChar/><tspan
						x="20.64" dy="1.2em" class="st6">&#38; </tspan>label_lyrics.py</text>		</g>
		<g id="shape4-16" v:mID="4" v:groupContext="shape" transform="translate(414,-156.375)">
			<title>Rectangle.4</title>
			<desc>The Lyric Mood Classification Pipeline mood_classification.py</desc>
			<v:userDefs>
				<v:ud v:nameU="visVersion" v:val="VT0(15):26"/>
			</v:userDefs>
			<v:textBlock v:margins="rect(4,4,4,4)"/>
			<v:textRect cx="54" cy="523.125" width="108" height="177.75"/>
			<g id="shadow4-17" v:groupContext="shadow" v:shadowOffsetX="0.345598" v:shadowOffsetY="-1.97279" v:shadowType="1"
					transform="matrix(1,0,0,1,0.345598,1.97279)" class="st2">
				<rect x="0" y="434.25" width="108" height="177.75" class="st7"/>
			</g>
			<rect x="0" y="434.25" width="108" height="177.75" class="st8"/>
			<text x="22.05" y="478.12" class="st9" v:langID="1033"><v:paragraph v:horizAlign="1"/><v:tabList/>The Lyric Mood<v:newlineChar/><tspan
						x="8.86" dy="1.2em" class="st6">Classification Pipeline<v:newlineChar/><v:newlineChar/><v:newlineChar/></tspan><tspan
						x="7.48" dy="3.6em" class="st10">mood</tspan><tspan class="st10">_</tspan><tspan class="st10">classification</tspan><tspan
						class="st10">.</tspan><tspan class="st10">py</tspan><v:newlineChar/><v:newlineChar/><v:newlineChar/><v:paragraph
						v:horizAlign="1"/><v:newlineChar/></text>		</g>
		<g id="shape5-28" v:mID="5" v:groupContext="shape" transform="translate(616.5,-176.625)">
			<title>Rectangle.5</title>
			<desc>lyrics_cnn.py</desc>
			<v:userDefs>
				<v:ud v:nameU="visVersion" v:val="VT0(15):26"/>
			</v:userDefs>
			<v:textBlock v:margins="rect(4,4,4,4)"/>
			<v:textRect cx="54" cy="590.063" width="108" height="43.875"/>
			<g id="shadow5-29" v:groupContext="shadow" v:shadowOffsetX="0.345598" v:shadowOffsetY="-1.97279" v:shadowType="1"
					transform="matrix(1,0,0,1,0.345598,1.97279)" class="st2">
				<rect x="0" y="568.125" width="108" height="43.875" class="st7"/>
			</g>
			<rect x="0" y="568.125" width="108" height="43.875" class="st8"/>
			<text x="27.62" y="593.06" class="st5" v:langID="1033"><v:paragraph v:horizAlign="1"/><v:tabList/>lyrics_cnn.py</text>		</g>
		<g id="shape8-34" v:mID="8" v:groupContext="shape" transform="translate(616.5,-230.625)">
			<title>Rectangle.8</title>
			<desc>lyrics2vec.py</desc>
			<v:userDefs>
				<v:ud v:nameU="visVersion" v:val="VT0(15):26"/>
			</v:userDefs>
			<v:textBlock v:margins="rect(4,4,4,4)"/>
			<v:textRect cx="54" cy="589.219" width="108" height="45.5625"/>
			<g id="shadow8-35" v:groupContext="shadow" v:shadowOffsetX="0.345598" v:shadowOffsetY="-1.97279" v:shadowType="1"
					transform="matrix(1,0,0,1,0.345598,1.97279)" class="st2">
				<rect x="0" y="566.438" width="108" height="45.5625" class="st7"/>
			</g>
			<rect x="0" y="566.438" width="108" height="45.5625" class="st8"/>
			<text x="28.08" y="592.22" class="st5" v:langID="1033"><v:paragraph v:horizAlign="1"/><v:tabList/>lyrics2vec.py</text>		</g>
		<g id="shape11-40" v:mID="11" v:groupContext="shape" transform="translate(108,-423)">
			<title>Cloud</title>
			<desc>genius.com</desc>
			<v:userDefs>
				<v:ud v:nameU="visVersion" v:prompt="" v:val="VT0(15):26"/>
			</v:userDefs>
			<v:textBlock v:margins="rect(4,4,4,4)"/>
			<v:textRect cx="54" cy="576" width="108" height="72"/>
			<path d="M5.31 582.53 A8.52891 9.56618 0 0 1 9.41 564.16 A17.2957 19.3991 0 0 1 34.51 548.65 A19.8602 22.2756 0 0 1 56.01
						 545.2 A12.4541 13.9688 0 0 1 74.44 544.05 A14.1793 15.9037 0 0 1 96.98 549.79 A10.1386 11.3712 0 0 1 105.17
						 565.88 A12.5579 14.0847 0 0 1 94.93 588.85 A15.8428 17.769 0 0 1 72.4 600.34 A18.6801 20.9512 0 0 1 41.68
						 604.94 A23.6794 26.5583 0 0 1 15.04 600.34 A9.342 10.4782 0 0 1 5.31 582.53 Z" class="st11"/>
			<path d="M5.31 582.53 A8.52891 9.56618 0 0 1 9.41 564.16 A17.2957 19.3991 0 0 1 34.51 548.65 A19.8602 22.2756 0 0 1 56.01
						 545.2 A12.4541 13.9688 0 0 1 74.44 544.05 A14.1793 15.9037 0 0 1 96.98 549.79 A10.1386 11.3712 0 0 1 105.17
						 565.88 A12.5579 14.0847 0 0 1 94.93 588.85 A15.8428 17.769 0 0 1 72.4 600.34 A18.6801 20.9512 0 0 1 41.68
						 604.94 A23.6794 26.5583 0 0 1 15.04 600.34 A9.342 10.4782 0 0 1 5.31 582.53" class="st12"/>
			<path d="M10.94 583.11 A8.50534 9.53974 0 0 1 5.31 582.53" class="st12"/>
			<path d="M40.13 602.06 A8.54237 9.58127 -180 0 0 41.68 604.94" class="st12"/>
			<path d="M73.17 596.89 A6.89577 7.73442 0 0 1 72.4 600.34" class="st12"/>
			<path d="M88.79 579.66 A7.2359 8.11591 0 0 1 94.93 588.85" class="st12"/>
			<path d="M102.1 569.33 A6.60605 7.40946 -180 0 0 105.17 565.88" class="st12"/>
			<path d="M37.57 550.94 A10.1871 11.4257 -180 0 0 34.51 548.65" class="st12"/>
			<text x="30.79" y="579" class="st13" v:langID="1033"><v:paragraph v:horizAlign="1"/><v:tabList/>genius.com</text>		</g>
		<g id="shape12-52" v:mID="12" v:groupContext="shape" v:layerMember="0" transform="translate(215.928,-458.755)">
			<title>Dynamic connector</title>
			<desc>lyrics</desc>
			<v:textBlock v:margins="rect(4,4,4,4)"/>
			<v:textRect cx="24.7858" cy="634.378" width="40" height="17.6036"/>
			<path d="M0 612 L44.35 652.04" class="st14"/>
			<rect v:rectContext="textBkgnd" x="16.489" y="629.578" width="16.5935" height="9.59985" class="st16"/>
			<text x="16.49" y="636.78" class="st17" v:langID="1033"><v:paragraph v:horizAlign="1"/><v:tabList/>lyrics</text>		</g>
		<g id="group13-60" transform="translate(432,-369)" v:mID="13" v:groupContext="group">
			<v:userDefs>
				<v:ud v:nameU="visVersion" v:prompt="" v:val="VT0(15):26"/>
			</v:userDefs>
			<title>Can</title>
			<desc>Project Dataset</desc>
			<g id="shape14-61" v:mID="14" v:groupContext="shape">
				<title>Sheet.14</title>
				<v:userDefs>
					<v:ud v:nameU="ControlHalfHeight" v:prompt="" v:val="VT0(0.125):1"/>
					<v:ud v:nameU="FillForegnd" v:prompt="" v:val="VT5(1)"/>
					<v:ud v:nameU="FillForegnd" v:prompt="" v:val="VT5(#ed7d31)"/>
				</v:userDefs>
				<g id="shadow14-62" v:groupContext="shadow" v:shadowOffsetX="0.345598" v:shadowOffsetY="-1.97279" v:shadowType="1"
						transform="matrix(1,0,0,1,0.345598,1.97279)" class="st2">
					<path d="M0 603 A36 9 -180 1 0 72 603 L72 531 L0 531 L0 603 Z" class="st7"/>
				</g>
				<path d="M0 603 A36 9 -180 1 0 72 603 L72 531 L0 531 L0 603 Z" class="st8"/>
			</g>
			<g id="shape13-66" v:mID="13" v:groupContext="groupContent">
				<v:textBlock v:margins="rect(4,4,4,4)"/>
				<v:textRect cx="36" cy="567" width="72" height="90"/>
				<g id="shadow13-67" v:groupContext="shadow" v:shadowOffsetX="0.345598" v:shadowOffsetY="-1.97279" v:shadowType="1"
						transform="matrix(1,0,0,1,0.345598,1.97279)" class="st2">
					<ellipse cx="36" cy="531" rx="36" ry="9" class="st7"/>
				</g>
				<ellipse cx="36" cy="531" rx="36" ry="9" class="st8"/>
				<text x="21.56" y="564" class="st5" v:langID="1033"><v:paragraph v:horizAlign="1"/><v:tabList/>Project<v:newlineChar/><tspan
							x="20.34" dy="1.2em" class="st6">Dataset</tspan></text>			</g>
		</g>
		<g id="shape15-73" v:mID="15" v:groupContext="shape" v:layerMember="0" transform="translate(373.5,-405)">
			<title>Dynamic connector.15</title>
			<desc>track info &#38; lyrics</desc>
			<v:textBlock v:margins="rect(4,4,4,4)"/>
			<v:textRect cx="27" cy="603" width="40.65" height="27.2035"/>
			<path d="M0 603 L51.46 603" class="st14"/>
			<rect v:rectContext="textBkgnd" x="11.5862" y="593.4" width="30.8279" height="19.1997" class="st16"/>
			<text x="11.59" y="600.6" class="st17" v:langID="1033"><v:paragraph v:horizAlign="1"/><v:tabList/>track info<v:newlineChar/><tspan
						x="15.07" dy="1.2em" class="st6">&#38; </tspan>lyrics</text>		</g>
		<g id="shape16-81" v:mID="16" v:groupContext="shape" v:layerMember="0" transform="translate(504,-416.25)">
			<title>Dynamic connector.16</title>
			<desc>track IDs</desc>
			<v:textBlock v:margins="rect(4,4,4,4)"/>
			<v:textRect cx="36" cy="603" width="40" height="17.6036"/>
			<path d="M0 603 L64.96 603" class="st14"/>
			<rect v:rectContext="textBkgnd" x="21.9024" y="598.2" width="28.1953" height="9.59985" class="st16"/>
			<text x="21.9" y="605.4" class="st17" v:langID="1033"><v:paragraph v:horizAlign="1"/><v:tabList/>track IDs</text>		</g>
		<g id="shape17-88" v:mID="17" v:groupContext="shape" v:layerMember="0" transform="translate(576,-394.875)">
			<title>Dynamic connector.17</title>
			<desc>track moods</desc>
			<v:textBlock v:margins="rect(4,4,4,4)"/>
			<v:textRect cx="-36" cy="603" width="50.11" height="17.6036"/>
			<path d="M0 603 L-64.96 603" class="st14"/>
			<rect v:rectContext="textBkgnd" x="-56.1443" y="598.2" width="40.2888" height="9.59985" class="st16"/>
			<text x="-56.14" y="605.4" class="st17" v:langID="1033"><v:paragraph v:horizAlign="1"/><v:tabList/>track moods</text>		</g>
		<g id="group18-95" transform="translate(-405,193.5) rotate(-90) scale(-1,1)" v:mID="18" v:groupContext="group">
			<v:userDefs>
				<v:ud v:nameU="ScrollDia" v:prompt="" v:val="VT0(0.15625):1"/>
				<v:ud v:nameU="visVersion" v:prompt="" v:val="VT0(15):26"/>
			</v:userDefs>
			<title>Horizontal Scroll</title>
			<desc>musiXmatch to Last.fm ID map</desc>
			<g id="shape18-96" v:mID="18" v:groupContext="groupContent">
				<v:textBlock v:margins="rect(4,4,4,4)"/>
				<v:textRect cx="36" cy="572.625" width="78.75" height="49.5" transform="rotate(90)"/>
				<path d="M11.25 600.75 L5.62 600.75 A5.625 5.625 -180 1 0 5.62 612 L55.12 612 A5.62321 5.62321 -180 0 0 60.75 606.37
							 L60.75 533.25 L66.37 533.25 A5.625 5.625 -180 0 0 66.37 522 L16.87 522 A5.62321 5.62321 -180 0 0 11.25
							 527.62 L11.25 600.75 Z" class="st11"/>
				<path d="M11.25 600.75 L5.62 600.75 A5.625 5.625 -180 1 0 5.62 612 L55.12 612 A5.62321 5.62321 -180 0 0 60.75 606.37
							 L60.75 533.25 L66.37 533.25 A5.625 5.625 -180 0 0 66.37 522 L16.87 522 A5.62321 5.62321 -180 0 0 11.25
							 527.62 L11.25 600.75" class="st12"/>
				<path d="M11.25 600.75 L11.25 606.37" class="st12"/>
				<path d="M16.87 533.25 L66.37 533.25" class="st12"/>
				<path d="M22.5 527.62 A5.62321 5.62321 -180 0 0 16.87 522" class="st12"/>
				<text x="542.06" y="33" transform="rotate(-90) scale(-1,1)" class="st13" v:langID="1033"><v:paragraph
							v:horizAlign="1"/><v:tabList/>musiXmatch to <tspan x="542.1" dy="1.2em" class="st6">Last</tspan>.fm ID map</text>			</g>
			<g id="shape19-105" v:mID="19" v:groupContext="shape">
				<title>Sheet.19</title>
				<v:userDefs>
					<v:ud v:nameU="ScrollDia" v:prompt="" v:val="VT0(0.15625):1"/>
					<v:ud v:nameU="FillForegnd" v:prompt="" v:val="VT5(1)"/>
					<v:ud v:nameU="FillForegnd" v:prompt="" v:val="VT5(#5b9bd5)"/>
				</v:userDefs>
				<path d="M11.25 606.37 L5.62 606.37 A2.8125 2.8125 -180 0 0 5.62 600.75 A5.625 5.625 -180 1 0 5.62 612 A5.62321 5.62321
							 -180 0 0 11.25 606.37 ZM22.5 527.62 L16.87 527.62 A2.8125 2.8125 -180 1 0 16.87 533.25 A5.62321 5.62321
							 -180 0 0 22.5 527.62 Z" class="st18"/>
			</g>
		</g>
		<g id="shape20-109" v:mID="20" v:groupContext="shape" v:layerMember="0" transform="translate(207,-382.5)">
			<title>Dynamic connector.20</title>
			<desc>track info</desc>
			<v:textBlock v:margins="rect(4,4,4,4)"/>
			<v:textRect cx="29.25" cy="596.25" width="40.65" height="17.6036"/>
			<path d="M0 612 L52.3 583.84" class="st14"/>
			<rect v:rectContext="textBkgnd" x="13.8362" y="591.45" width="30.8279" height="9.59985" class="st16"/>
			<text x="13.84" y="598.65" class="st17" v:langID="1033"><v:paragraph v:horizAlign="1"/><v:tabList/>track info</text>		</g>
		<g id="group21-116" transform="translate(733.5,-369)" v:mID="21" v:groupContext="group">
			<v:userDefs>
				<v:ud v:nameU="visVersion" v:prompt="" v:val="VT0(15):26"/>
			</v:userDefs>
			<title>Can.21</title>
			<desc>Last.fm dataset</desc>
			<g id="shape22-117" v:mID="22" v:groupContext="shape">
				<title>Sheet.22</title>
				<v:userDefs>
					<v:ud v:nameU="ControlHalfHeight" v:prompt="" v:val="VT0(0.125):1"/>
					<v:ud v:nameU="FillForegnd" v:prompt="" v:val="VT5(1)"/>
					<v:ud v:nameU="FillForegnd" v:prompt="" v:val="VT5(#5b9bd5)"/>
				</v:userDefs>
				<g id="shadow22-118" v:groupContext="shadow" v:shadowOffsetX="0.345598" v:shadowOffsetY="-1.97279" v:shadowType="1"
						transform="matrix(1,0,0,1,0.345598,1.97279)" class="st2">
					<path d="M0 603 A36 9 -180 1 0 72 603 L72 531 L0 531 L0 603 Z" class="st3"/>
				</g>
				<path d="M0 603 A36 9 -180 1 0 72 603 L72 531 L0 531 L0 603 Z" class="st4"/>
			</g>
			<g id="shape21-122" v:mID="21" v:groupContext="groupContent">
				<v:textBlock v:margins="rect(4,4,4,4)"/>
				<v:textRect cx="36" cy="567" width="72" height="90"/>
				<g id="shadow21-123" v:groupContext="shadow" v:shadowOffsetX="0.345598" v:shadowOffsetY="-1.97279" v:shadowType="1"
						transform="matrix(1,0,0,1,0.345598,1.97279)" class="st2">
					<ellipse cx="36" cy="531" rx="36" ry="9" class="st3"/>
				</g>
				<ellipse cx="36" cy="531" rx="36" ry="9" class="st4"/>
				<text x="21.09" y="564" class="st5" v:langID="1033"><v:paragraph v:horizAlign="1"/><v:tabList/>Last.fm<v:newlineChar/><tspan
							x="20.79" dy="1.2em" class="st6">dataset</tspan></text>			</g>
		</g>
		<g id="shape24-129" v:mID="24" v:groupContext="shape" v:layerMember="0" transform="translate(733.5,-405)">
			<title>Dynamic connector.24</title>
			<desc>mood tags</desc>
			<v:textBlock v:margins="rect(4,4,4,4)"/>
			<v:textRect cx="-24.75" cy="603" width="40" height="27.2035"/>
			<path d="M0 603 L-42.46 603" class="st14"/>
			<rect v:rectContext="textBkgnd" x="-34.2655" y="593.4" width="19.0311" height="19.1997" class="st16"/>
			<text x="-34.27" y="600.6" class="st17" v:langID="1033"><v:paragraph v:horizAlign="1"/><v:tabList/>mood<v:newlineChar/><tspan
						x="-31.45" dy="1.2em" class="st6">tags</tspan></text>		</g>
		<g id="shape27-137" v:mID="27" v:groupContext="shape" v:layerMember="0" transform="translate(614.25,-243)">
			<title>Dynamic connector.27</title>
			<desc>word embeddings</desc>
			<v:textBlock v:margins="rect(4,4,4,4)"/>
			<v:textRect cx="-43.9407" cy="620.291" width="68.45" height="17.6036"/>
			<path d="M0 612 L-85.34 628.65" class="st19"/>
			<rect v:rectContext="textBkgnd" x="-73.2566" y="615.491" width="58.6321" height="9.59985" class="st16"/>
			<text x="-73.26" y="622.69" class="st21" v:langID="1033"><v:paragraph v:horizAlign="1"/><v:tabList/>word embeddings</text>		</g>
		<g id="shape29-145" v:mID="29" v:groupContext="shape" v:layerMember="0" transform="translate(616.5,-190.688)">
			<title>Dynamic connector.29</title>
			<desc>results</desc>
			<v:textBlock v:margins="rect(4,4,4,4)"/>
			<v:textRect cx="-49.3927" cy="620.938" width="40" height="17.6036"/>
			<path d="M0 612.56 L-87.57 628.2" class="st19"/>
			<rect v:rectContext="textBkgnd" x="-60.2656" y="616.139" width="21.7458" height="9.59985" class="st16"/>
			<text x="-60.27" y="623.34" class="st21" v:langID="1033"><v:paragraph v:horizAlign="1"/><v:tabList/>results</text>		</g>
		<g id="shape30-152" v:mID="30" v:groupContext="shape" transform="translate(616.5,-288.563)">
			<title>Rectangle.30</title>
			<desc>preprocessing functions</desc>
			<v:userDefs>
				<v:ud v:nameU="visVersion" v:val="VT0(15):26"/>
			</v:userDefs>
			<v:textBlock v:margins="rect(4,4,4,4)"/>
			<v:textRect cx="54" cy="589.219" width="108" height="45.5625"/>
			<g id="shadow30-153" v:groupContext="shadow" v:shadowOffsetX="0.345598" v:shadowOffsetY="-1.97279" v:shadowType="1"
					transform="matrix(1,0,0,1,0.345598,1.97279)" class="st2">
				<rect x="0" y="566.438" width="108" height="45.5625" class="st7"/>
			</g>
			<rect x="0" y="566.438" width="108" height="45.5625" class="st8"/>
			<text x="5.43" y="592.22" class="st5" v:langID="1033"><v:paragraph v:horizAlign="1"/><v:tabList/>preprocessing functions</text>		</g>
		<g id="shape31-158" v:mID="31" v:groupContext="shape" v:layerMember="0" transform="translate(616.5,-303.75)">
			<title>Dynamic connector.31</title>
			<desc>processed text</desc>
			<v:textBlock v:margins="rect(4,4,4,4)"/>
			<v:textRect cx="-49.1217" cy="623.022" width="57.45" height="17.6036"/>
			<path d="M0 612 L-87.08 632.34" class="st19"/>
			<rect v:rectContext="textBkgnd" x="-72.9357" y="618.223" width="47.6282" height="9.59985" class="st16"/>
			<text x="-72.94" y="625.42" class="st21" v:langID="1033"><v:paragraph v:horizAlign="1"/><v:tabList/>processed text</text>		</g>
		<g id="shape32-165" v:mID="32" v:groupContext="shape" v:layerMember="0" transform="translate(616.5,-319.5)">
			<title>Dynamic connector.32</title>
			<desc>corpus</desc>
			<v:textBlock v:margins="rect(4,4,4,4)"/>
			<v:textRect cx="-49.4123" cy="622.728" width="40" height="17.6036"/>
			<path d="M-6.52 613.47 L-6.87 613.55 L-94.5 633.37" class="st22"/>
			<rect v:rectContext="textBkgnd" x="-60.3752" y="617.929" width="21.9257" height="9.59985" class="st16"/>
			<text x="-60.38" y="625.13" class="st21" v:langID="1033"><v:paragraph v:horizAlign="1"/><v:tabList/>corpus</text>		</g>
		<g id="shape36-173" v:mID="36" v:groupContext="shape" v:layerMember="0" transform="translate(617.063,-261)">
			<title>Dynamic connector.36</title>
			<desc>processed text</desc>
			<v:textBlock v:margins="rect(4,4,4,4)"/>
			<v:textRect cx="-49.5329" cy="621.717" width="57.45" height="17.6036"/>
			<path d="M-6.54 613.34 L-6.9 613.41 L-94.75 631.44" class="st22"/>
			<rect v:rectContext="textBkgnd" x="-73.3469" y="616.917" width="47.6282" height="9.59985" class="st16"/>
			<text x="-73.35" y="624.12" class="st21" v:langID="1033"><v:paragraph v:horizAlign="1"/><v:tabList/>processed text</text>		</g>
		<g id="shape37-180" v:mID="37" v:groupContext="shape" v:layerMember="0" transform="translate(617.25,-207.094)">
			<title>Dynamic connector.37</title>
			<desc>train, dev, &#38; test data</desc>
			<v:textBlock v:margins="rect(4,4,4,4)"/>
			<v:textRect cx="-49.1981" cy="620.943" width="80.65" height="17.6036"/>
			<path d="M-6.57 613.66 L-6.93 613.72 L-94.12 629.53" class="st22"/>
			<rect v:rectContext="textBkgnd" x="-84.6158" y="616.143" width="70.8354" height="9.59985" class="st16"/>
			<text x="-84.62" y="623.34" class="st21" v:langID="1033"><v:paragraph v:horizAlign="1"/><v:tabList/>train, dev, &#38; test data</text>		</g>
		<g id="shape39-187" v:mID="39" v:groupContext="shape" v:layerMember="0" transform="translate(459,-367.875)">
			<title>Dynamic connector.39</title>
			<desc>data</desc>
			<v:textBlock v:margins="rect(4,4,4,4)"/>
			<v:textRect cx="9" cy="628.031" width="40" height="17.6036"/>
			<path d="M9 612 L9 637.02" class="st19"/>
			<rect v:rectContext="textBkgnd" x="1.72656" y="623.232" width="14.5467" height="9.59985" class="st16"/>
			<text x="1.73" y="630.43" class="st21" v:langID="1033"><v:paragraph v:horizAlign="1"/><v:tabList/>data</text>		</g>
		<g id="shape40-194" v:mID="40" v:groupContext="shape" transform="translate(414,-73.125)">
			<title>Rectangle</title>
			<desc>classification accuracies, f1 scores, confusion matrix</desc>
			<v:userDefs>
				<v:ud v:nameU="visVersion" v:val="VT0(15):26"/>
			</v:userDefs>
			<v:textBlock v:margins="rect(4,4,4,4)"/>
			<v:textRect cx="54" cy="590.063" width="108" height="43.875"/>
			<rect x="0" y="568.125" width="108" height="43.875" class="st23"/>
			<text x="4.54" y="581.06" class="st24" v:langID="1033"><v:paragraph v:horizAlign="1"/><v:tabList/>classification accuracies,<v:newlineChar/><tspan
						x="34.67" dy="1.2em" class="st6">f</tspan>1 scores,<v:newlineChar/><tspan x="19.85" dy="1.2em" class="st6">confusion matrix</tspan></text>		</g>
		<g id="shape41-199" v:mID="41" v:groupContext="shape" v:layerMember="0" transform="translate(459,-156.375)">
			<title>Dynamic connector.41</title>
			<path d="M9 612 L9 644.33" class="st19"/>
		</g>
	</g>
</svg>
